<?xml version="1.0" encoding="UTF-8" standalone="no"?>
<!-- Created with Inkscape (http://www.inkscape.org/) -->
<svg
   xmlns:svg="http://www.w3.org/2000/svg"
   xmlns="http://www.w3.org/2000/svg"
   version="1.0"
   width="466.13107"
   height="466.13107"
   id="svg2211">
  <defs
     id="defs2214" />
  <g
     transform="translate(-48.273174,-19.927549)"
     id="g5082">
    <path
       d="M 38.194988 220.38763 A 77.321564 77.321564 0 1 1  -116.44814,220.38763 A 77.321564 77.321564 0 1 1  38.194988 220.38763 z"
       transform="matrix(2.9495723,0,0,2.9495723,396.74538,-397.05617)"
       style="opacity:1;fill:#ffffff;fill-opacity:1;fill-rule:evenodd;stroke:#cc0000;stroke-width:3.39032197;stroke-linejoin:miter;stroke-miterlimit:4;stroke-dasharray:none;stroke-dashoffset:0;stroke-opacity:1"
       id="path4163" />
    <path
       d="M 226.60317 204.20634 A 62.579365 62.579365 0 1 1  101.44444,204.20634 A 62.579365 62.579365 0 1 1  226.60317 204.20634 z"
       transform="matrix(3.1542502,0,0,3.1542501,-235.21924,-390.17739)"
       style="opacity:1;fill:none;fill-opacity:1;fill-rule:evenodd;stroke:#cc0000;stroke-width:10.05717278;stroke-linejoin:miter;stroke-miterlimit:4;stroke-dasharray:none;stroke-dashoffset:0;stroke-opacity:1"
       id="path2220" />
    <path
       d="M 258.51487,124.90015 L 300.4362,124.90015 L 300.4362,117.44748 L 310.21785,102.54211 L 291.58614,110.69349 L 279.47554,97.884189 C 279.47554,97.884189 268.52941,110.22769 266.66624,109.29611 C 264.80307,108.36452 248.73323,102.07632 248.73323,102.07632 L 258.51487,117.21458 L 258.51487,124.90015 z "
       style="opacity:1;fill:#cc0000;fill-opacity:1;fill-rule:evenodd;stroke:none;stroke-width:1px;stroke-linecap:butt;stroke-linejoin:miter;stroke-opacity:1"
       id="path5152" />
    <path
       d="M 372.5,142.875 C 367.92327,148.87561 366.68052,163.18367 360.46875,167 C 354.22504,170.83596 346.47262,171.97209 342.84375,181.71875 L 342.75,191.03125 C 342.93758,192.12107 342.36567,193.03287 341.3125,193.8125 L 332.96875,193.90625 C 322.58788,204.71446 300.56471,230.86746 300.4135,189.96875 L 300.84119,180.0649 L 309.11924,179.81424 C 316.06176,178.35513 317.53956,165.2792 314.48494,167.43222 C 302.66627,175.06198 301.23611,164.62429 302.96474,158.57925 C 304.64741,152.69494 312.67706,146.72386 313.65648,145.62511 C 315.49121,141.70951 314.6814,134.56206 313.5073,135.76277 C 311.21366,145.42725 289.16839,143.02445 281.94277,135.48263 C 254.98642,134.43867 241.99374,142.26552 232.00155,147.35033 C 230.61762,148.27211 232.42998,154.27867 233.31653,153.9363 C 245.68023,148.22295 254.0471,143.35918 254.03404,158.25255 C 246.94998,158.84115 225.84086,159.25428 225.94283,152.73402 C 225.96729,151.17021 224.60988,151.37381 224.37714,151.51557 C 209.34797,165.28876 242.55385,167.64363 255.97113,161.45101 C 255.91089,163.68435 257.25643,166.30109 254.41782,167.7767 C 249.30176,168.39871 240.15876,165.99611 239.06965,167.77616 C 235.62949,175.23781 250.25453,176.75079 260.9734,174.31312 C 263.11139,177.57898 265.79739,180.73525 264.17928,184.75233 L 253.62177,185.43835 L 260.61183,191.51979 L 265.46875,188.06098 C 265.31754,228.95967 243.22015,207.74124 229.90625,194 L 221.5625,193.90625 C 220.50934,193.12663 219.93742,192.21482 220.125,191.125 L 220.03125,181.8125 C 216.40238,172.06583 208.61871,170.89846 202.375,167.0625 C 196.16322,163.24615 194.95173,148.93811 190.375,142.9375 C 172.07635,146.03023 178.08681,181.19135 188.25,191.34375 C 190.45963,192.55702 193.4112,201.35126 188.90625,198.84375 C 179.5803,193.96853 149.00994,170.07184 149.53125,169.625 C 143.54518,176.35311 144.84472,188.56995 152.46875,195.375 C 159.11338,201.30585 167.89293,208.41011 176.53125,216.59375 C 177.2529,217.3309 177.42453,218.20465 176.40625,219 L 135.53125,219.34375 C 129.85429,218.30123 127.14519,218.07355 122.84375,218.6875 C 122.86018,237.23627 149.11717,239.60351 177.84375,240.4375 C 178.86463,241.1775 179.37176,242.01272 178.84375,243.0625 C 156.1493,249.31462 132.60653,254.56738 111.3125,262.5 C 111.06768,285.25282 161.28024,276.49103 188.53125,264.84375 C 192.03462,263.24946 200.39254,260.30437 194.21875,266.1875 L 132.40625,308.9375 C 134.4757,318.51869 151.05434,328.3433 202.46875,290.90625 C 205.70008,288.55339 209.02733,286.86902 211.84375,284.9375 C 215.73741,282.06783 217.973,284.72396 216,286.875 C 212.09761,295.13881 205.28207,301.2668 200,307.875 L 205.1875,311.90625 C 194.20544,323.60537 189.66857,330.09458 187.84375,332.28125 C 186.57998,333.79563 185.68312,333.9729 184.46875,333.21875 C 181.84898,330.41706 179.06507,327.70796 175.1875,325.625 C 174.63428,325.434 173.93376,325.54544 172.15625,326.46875 C 169.62077,327.78578 163.92044,326.62959 161.3125,326.96875 C 152.71188,329.68309 155.56026,331.54133 155.6875,334.84375 C 158.07008,333.6609 157.71074,331.15587 164.21875,331.9375 C 166.8958,335.76924 170.82371,337.91718 175.25,339.34375 C 176.92837,339.63342 177.83049,340.90377 176.59375,341.6875 C 172.52147,343.14033 165.12421,345.11707 165.375,347.03125 C 165.14712,348.13045 165.50225,349.84129 164.40625,350.25 C 155.49278,353.14765 159.10916,358.63554 161.25,362.3125 C 161.94483,359.47079 162.60522,356.63266 165.65625,355.71875 L 168.46875,356.5625 C 170.27642,357.52744 176.50733,353.6869 179.6875,350.5625 C 180.2364,350.00944 180.79485,350.17656 181.34375,350.71875 C 177.37733,357.89818 177.10148,362.53956 178.53125,366 C 179.16735,367.53952 180.7781,365.41822 180.9375,367.09375 C 181.28266,370.72209 186.49742,375.73364 189.25,377.84375 C 188.1951,373.88333 185.73391,369.92916 186.84375,365.96875 C 190.46707,366.20194 194.70049,359.64125 190,353.65625 C 188.70262,352.90328 191.04575,348.77653 191.65625,349.40625 C 194.09569,352.62324 196.13081,357.7309 198.96875,359.0625 C 200.50701,359.64233 202.05549,360.29416 203.59375,359.0625 C 206.36556,360.33292 207.55044,364.30213 209.34375,367.25 C 210.24432,364.90384 211.53727,362.7901 210.96875,359.5625 C 210.48531,357.10004 208.96915,356.0123 206.9375,355.5625 C 207.91407,354.24029 209.99934,352.38612 208.875,351.4375 C 205.57477,347.39575 201.06109,343.33056 196.71875,339.84375 C 195.95674,339.16456 196.22395,338.36241 196.78125,337.625 L 213.09375,317.84375 L 217.78125,321.59375 C 223.89656,313.36707 229.37321,304.60076 237.53125,298.125 C 240.97256,295.42625 253.22988,295.61604 249.3125,307.28125 C 240.90197,320.10807 230.91707,331.55824 220.34375,342.53125 C 212.47099,351.70853 216.10682,360.73611 217.71875,367.90625 C 217.90872,368.96825 220.0108,366.4211 220.03125,364.875 C 220.14484,362.97631 220.23536,360.39413 222.65625,358.6875 C 223.69683,366.04122 228.8864,373.2526 232.53125,378.125 C 232.1799,370.98876 231.34846,365.41749 232.5,358.28125 C 232.70914,357.51539 233.62902,357.62712 234.1875,358.375 C 234.97739,362.45374 238.28841,366.80229 241.46875,369.8125 C 243.83982,360.66247 242.29733,350.81162 248.53125,341.9375 C 257.87391,328.85874 265.93606,334.67694 264.4375,347.96875 L 257.90625,365.28125 C 247.58868,377.76025 254.80329,392.66323 261.53125,398.875 C 262.22871,399.61835 263.59061,396.72716 263.25,394.625 C 262.48757,388.48206 264.15274,385.27777 267.46875,381.03125 C 267.85855,380.49834 269.05101,380.17693 270,381.125 C 272.44787,387.49009 276.48359,392.90432 280.5625,398.03125 C 281.01349,398.62774 281.81259,398.67279 282.3125,397.9375 C 286.38682,392.81557 290.39857,387.4206 292.84375,381.0625 C 293.79274,380.11443 295.01645,380.40459 295.40625,380.9375 C 298.72226,385.18402 300.38743,388.38831 299.625,394.53125 C 299.28439,396.63341 300.64629,399.52459 301.34375,398.78125 C 308.07171,392.56948 315.28632,377.6665 304.96875,365.1875 L 298.40625,347.90625 C 296.90769,334.61444 305.00109,328.79623 314.34375,341.875 C 320.57767,350.74912 319.0352,360.59997 321.40625,369.75 C 324.58659,366.73979 327.89761,362.39124 328.6875,358.3125 C 329.24598,357.56462 330.1346,357.42166 330.34375,358.1875 C 331.49529,365.32374 330.69509,370.895 330.34375,378.03125 C 333.9886,373.15885 339.17817,365.94747 340.21875,358.59375 C 342.63964,360.30038 342.73014,362.88256 342.84375,364.78125 C 342.8642,366.32735 344.96628,368.8745 345.15625,367.8125 C 346.76818,360.64236 350.404,351.64602 342.53125,342.46875 C 331.95793,331.49574 321.94178,320.01431 313.53125,307.1875 C 309.61387,295.52229 321.87119,295.3325 325.3125,298.03125 C 333.47054,304.50701 338.97844,313.30457 345.09375,321.53125 L 349.78125,317.75 L 366.09375,337.5625 C 366.65105,338.29991 366.91827,339.0708 366.15625,339.75 C 361.81391,343.23681 357.30023,347.33324 354,351.375 C 352.87566,352.32362 354.96093,354.14654 355.9375,355.46875 C 353.90585,355.91855 352.38968,357.03753 351.90625,359.5 C 351.33773,362.7276 352.59943,364.84137 353.5,367.1875 C 355.29331,364.23963 356.50944,360.23917 359.28125,358.96875 C 360.81951,360.20041 362.33674,359.57983 363.875,359 C 366.71294,357.6684 368.77931,352.56077 371.21875,349.34375 C 371.82925,348.71403 374.17238,352.84077 372.875,353.59375 C 368.17451,359.57875 372.40794,366.10818 376.03125,365.875 C 377.14109,369.83541 374.6799,373.78958 373.625,377.75 C 376.37758,375.63989 381.59232,370.62834 381.9375,367 C 382.0969,365.32447 383.70767,367.47702 384.34375,365.9375 C 385.77352,362.47706 385.49768,357.83568 381.53125,350.65625 C 382.08015,350.11406 382.63859,349.94693 383.1875,350.5 C 386.36767,353.6244 392.59858,357.46496 394.40625,356.5 L 397.1875,355.625 C 400.23853,356.53891 400.93017,359.40829 401.625,362.25 C 403.76584,358.57304 407.35095,353.08515 398.4375,350.1875 C 397.3415,349.77879 397.72786,348.0367 397.5,346.9375 C 397.75079,345.02332 390.35352,343.04658 386.28125,341.59375 C 385.04451,340.81002 385.94662,339.53967 387.625,339.25 C 392.05129,337.82343 395.97918,335.70674 398.65625,331.875 C 405.16426,331.09337 404.77367,333.56714 407.15625,334.75 C 407.28349,331.44758 410.16312,329.58934 401.5625,326.875 C 398.95456,326.53584 393.25425,327.72327 390.71875,326.40625 C 388.94124,325.48294 388.24073,325.3715 387.6875,325.5625 C 383.80993,327.64546 381.02601,330.35456 378.40625,333.15625 C 377.19188,333.9104 376.29502,333.70187 375.03125,332.1875 C 373.20643,330.00083 368.6383,323.54286 357.65625,311.84375 L 362.875,307.78125 C 357.59293,301.17305 350.74614,295.07631 346.84375,286.8125 C 344.87075,284.66146 347.13759,281.97407 351.03125,284.84375 C 353.84767,286.77527 357.17493,288.49088 360.40625,290.84375 C 411.82066,328.2808 428.3993,318.45619 430.46875,308.875 L 368.625,266.125 C 362.45121,260.24187 370.80912,263.18696 374.3125,264.78125 C 401.56351,276.42853 451.77608,285.19032 451.53125,262.4375 C 430.23722,254.50488 406.72569,249.25212 384.03125,243 C 383.50324,241.95022 383.97912,241.08375 385,240.34375 C 413.72658,239.50976 439.98358,237.17377 440,218.625 C 435.69856,218.01105 433.02071,218.20747 427.34375,219.25 L 386.4375,218.90625 C 385.41922,218.1109 385.62209,217.26839 386.34375,216.53125 C 394.98207,208.34761 403.76162,201.24335 410.40625,195.3125 C 418.03028,188.50745 419.32981,176.25936 413.34375,169.53125 C 413.86506,169.97809 383.2947,193.8748 373.96875,198.75 C 369.4638,201.25751 372.41537,192.49452 374.625,191.28125 C 384.78819,181.12885 390.79865,145.96772 372.5,142.875 z "
       style="opacity:1;fill:#cc0000;fill-opacity:1;fill-rule:evenodd;stroke:none;stroke-width:1px;stroke-linecap:butt;stroke-linejoin:miter;stroke-opacity:1"
       id="path5154" />
    <path
       d="M 265.46776,146.8774 C 264.35775,147.60524 266.3472,152.69415 267.54173,154.75848 L 278.94855,145.63302 C 274.84878,144.80114 269.81004,144.9494 265.46776,146.8774 z "
       style="opacity:1;fill:#ffffff;fill-rule:evenodd;stroke:none;stroke-width:1px;stroke-linecap:butt;stroke-linejoin:miter;stroke-opacity:1"
       id="path2161" />
    <path
       d="M 260.07545,228.7991 L 302.79917,228.7991 C 304.1061,252.99538 295.70368,283.62096 281.8521,301.38794 C 267.69089,284.45054 259.08767,252.99538 260.07545,228.7991 z "
       style="opacity:1;fill:#ffffff;fill-rule:evenodd;stroke:none;stroke-width:1px;stroke-linecap:butt;stroke-linejoin:miter;stroke-opacity:1"
       id="path2163" />
    <path
       d="M 271.06747,238.54674 L 271.06747,274.84116 L 293.05152,274.84116 L 293.05152,269.44885 L 279.50999,269.44885 L 279.50999,258.87162 L 291.80714,258.87162 L 291.80714,253.06451 L 279.57074,253.06451 L 279.57074,243.52426 L 291.7464,243.52426 L 291.7464,238.42525 L 271.06747,238.54674 z "
       style="opacity:1;fill:#cc0000;fill-opacity:1;fill-rule:evenodd;stroke:none;stroke-width:1px;stroke-linecap:butt;stroke-linejoin:miter;stroke-opacity:1"
       id="path2165" />
    <path
       d="M 249.88363,245.1812 L 249.95428,251.85652 C 234.26368,248.59161 218.76686,234.88419 211.76492,218.41996 C 209.43918,221.34545 201.28229,226.16537 197.09976,224.57933 C 196.65604,221.53574 198.26228,218.69078 210.0051,215.48693 C 203.36002,209.59495 201.17391,201.8833 202.96582,196.12891 C 207.65382,198.1606 213.42055,204.82992 213.05736,214.02685 C 217.6039,209.95786 222.20911,208.2396 229.65642,208.44765 C 227.02508,213.63129 221.25068,216.07152 214.99126,217.52717 C 222.55701,230.61039 232.52056,241.89529 249.88363,245.1812 z "
       style="opacity:1;fill:#ffffff;fill-rule:evenodd;stroke:none;stroke-width:1px;stroke-linecap:butt;stroke-linejoin:miter;stroke-opacity:1"
       id="path2167" />
    <path
       d="M 313.29499,245.1812 L 313.22434,251.85652 C 328.91494,248.59161 344.41176,234.88419 351.4137,218.41996 C 353.73944,221.34545 361.89633,226.16537 366.07886,224.57933 C 366.52258,221.53574 364.91634,218.69078 353.17352,215.48693 C 359.8186,209.59495 362.00471,201.8833 360.2128,196.12891 C 355.5248,198.1606 349.75807,204.82992 350.12126,214.02685 C 345.57472,209.95786 340.8696,208.2396 333.5222,208.44765 C 336.15354,213.63129 341.92794,216.07152 348.18736,217.52717 C 340.62161,230.61039 330.65806,241.89529 313.29499,245.1812 z "
       style="opacity:1;fill:#ffffff;fill-rule:evenodd;stroke:none;stroke-width:1px;stroke-linecap:butt;stroke-linejoin:miter;stroke-opacity:1"
       id="path2169" />
  </g>
</svg>
