<?xml version="1.0" encoding="UTF-8" standalone="no"?>
<!-- Created with Inkscape (http://www.inkscape.org/) -->
<svg
   xmlns:svg="http://www.w3.org/2000/svg"
   xmlns="http://www.w3.org/2000/svg"
   version="1.0"
   width="566.92914"
   height="708.66138"
   id="svg8258">
  <defs
     id="defs8260">
  
  
 
   
   
   
   
   
  </defs>
  <g
     id="layer1">
    <g
       id="g8301">
      <polygon
         points="15500000,3484100 15500000,2127950 14456200,905320 14076000,459500 13873800,459500 2131100,458480 1928810,458480 503250,2128320 503250,3484380 500000,17871800 1925560,19541500 3603860,19541500 12399400,19541200 14078000,19541200 15056800,18394600 15499400,17871400 15500000,3484100 "
         transform="matrix(3.543307e-5,0,0,3.543307e-5,9.091797e-6,3.428073e-4)"
         style="fill-rule:evenodd"
         id="_94316080" />
      <polygon
         points="15500000,3484100 15500000,2127950 14456200,905320 14076000,459500 13873800,459500 2131100,458480 1928810,458480 503250,2128320 503250,3484380 500000,17871800 1925560,19541500 3603860,19541500 12399400,19541200 14078000,19541200 15056800,18394600 15499400,17871400 15500000,3484100 "
         transform="matrix(3.543307e-5,0,0,3.543307e-5,9.091797e-6,3.428073e-4)"
         style="fill:black;fill-opacity:1;fill-rule:evenodd"
         id="_95104984" />
      <polygon
         points="13872200,19094100 12451500,19094100 3551730,19094500 2131100,19094500 946470,17714700 950000,3458180 950000,2285360 2134720,905600 2769360,904020 13868900,905320 15053500,2284710 15053200,3457810 15053900,17714500 13872200,19094100 "
         transform="matrix(3.543307e-5,0,0,3.543307e-5,9.091797e-6,3.428073e-4)"
         style="fill:white;fill-opacity:1;fill-rule:evenodd"
         id="_97350032" />
      <path
         d="M 173.75989,656.46883 L 155.24682,656.46883 L 155.24682,597.291 L 132.30851,597.291 L 132.30851,583.341 C 145.21146,583.60781 157.07056,579.17301 159.02327,565.23293 L 173.75989,565.23293 L 173.75989,656.46883 z M 231.48886,563.40883 C 254.16036,563.40883 261.98646,579.04474 261.98646,587.90442 C 261.98646,596.90584 257.29477,604.20186 248.68843,607.32635 L 248.68843,607.06946 L 248.68843,607.32635 C 259.50402,609.81198 265.76292,618.15186 265.76292,629.61588 C 265.76292,648.78092 248.56016,658.29257 231.61394,658.29257 C 214.0193,658.29257 196.94516,649.4297 196.94516,629.75407 C 196.94516,618.15186 203.46059,609.9406 214.14792,607.32635 L 214.14792,607.06946 C 205.28469,604.59694 200.71808,597.291 200.71808,588.2995 C 200.71808,571.87698 216.62044,563.40883 231.48886,563.40883 z M 231.61394,644.34293 C 240.47717,644.34293 247.25941,638.09395 247.25941,628.96391 C 247.25941,620.2293 240.22028,614.36549 231.61394,614.36549 C 222.62563,614.36549 215.44831,619.45226 215.44831,628.83564 C 215.44831,638.22222 222.75426,644.34293 231.61394,644.34293 z M 231.48886,601.98269 C 239.04815,601.98269 245.16886,597.8147 245.16886,589.99497 C 245.16886,585.30328 242.94969,577.34891 231.48886,577.34891 C 224.05465,577.34891 217.53886,581.91234 217.53886,589.99497 C 217.53886,597.93978 224.05465,601.98269 231.48886,601.98269 z M 329.22709,588.69458 C 328.05177,582.5643 323.36008,577.34891 316.97291,577.34891 C 303.54662,577.34891 300.02705,594.94356 299.51646,605.12029 L 299.77016,605.37399 C 304.86012,598.20978 311.50099,595.21037 320.36421,595.21037 C 328.18039,595.21037 336.13795,598.8582 341.35299,604.59694 C 346.17331,610.19395 348.39213,617.75678 348.39213,624.921 C 348.39213,643.56588 335.48599,658.29257 316.44957,658.29257 C 288.81957,658.29257 281.39528,634.1793 281.39528,611.11273 C 281.39528,588.82285 291.3052,563.40883 317.23973,563.40883 C 333.01347,563.40883 344.74429,572.65403 346.82173,588.69458 L 329.22709,588.69458 z M 301.19882,626.09631 C 301.19882,634.57438 306.68067,643.04218 315.93898,643.04218 C 324.80221,643.04218 329.87587,634.57438 329.87587,626.36312 C 329.87587,617.75678 325.45099,609.15045 315.93898,609.15045 C 306.03225,609.15045 301.19882,617.10482 301.19882,626.09631 z M 399.60248,563.40883 C 417.84874,563.40883 433.22775,574.8732 433.22775,610.46076 C 433.22775,646.82856 417.84874,658.29257 399.60248,658.29257 C 381.60921,658.29257 366.23055,646.82856 366.23055,610.46076 C 366.23055,574.8732 381.60921,563.40883 399.60248,563.40883 z M 399.60248,643.04218 C 414.72425,643.04218 414.72425,620.75265 414.72425,610.46076 C 414.72425,600.93919 414.72425,578.65923 399.60248,578.65923 C 384.74717,578.65923 384.74717,600.93919 384.74717,610.46076 C 384.74717,620.75265 384.74717,643.04218 399.60248,643.04218 z M 488.49094,199.63239 C 464.66716,179.93408 441.11338,176.53286 419.99598,183.03554 C 384.36201,116.79554 422.94579,88.816876 441.20551,89.570537 C 458.53689,90.27849 460.38047,98.539356 460.38047,98.539356 C 448.2085,123.98632 454.94468,134.81148 459.62645,149.14345 C 463.41283,160.74601 453.5061,169.2829 453.5061,169.2829 C 464.56193,168.18022 470.04697,157.44684 470.04697,157.44684 C 472.80933,162.98786 469.41803,175.98648 469.41803,175.98648 C 477.16512,172.66428 479.84846,160.78215 479.84846,160.78215 C 482.33409,172.39782 491.48716,178.71589 491.48716,178.71589 C 491.48716,178.71589 489.31405,168.24932 490.97693,158.8429 C 492.63626,149.43329 499.29342,119.56109 486.50244,100.25786 C 451.07929,46.838609 353.24575,83.045183 406.65189,187.98376 C 355.96524,214.4877 338.49567,301.75297 436.2339,331.99687 C 422.1326,354.18116 397.49882,359.85081 386.16307,360.03506 C 378.26468,360.17325 375.11717,355.54073 373.89898,352.53175 C 373.79339,352.13667 373.73421,351.7547 373.59602,351.34652 C 364.5815,323.42348 332.22366,295.48097 332.22366,295.48097 C 341.91,284.00349 339.72697,279.18352 339.72697,279.18352 C 309.85193,292.31998 312.8974,273.48093 327.69319,266.84998 C 342.49252,260.20593 341.94614,252.28451 341.94614,252.28451 C 318.29669,254.77014 327.82181,238.67042 340.2737,230.65687 C 352.71213,222.62986 355.06949,217.8099 355.06949,217.8099 C 337.15913,219.61061 334.23201,205.87144 355.455,193.31431 C 376.66134,180.78341 373.71118,175.98648 373.71118,175.98648 C 373.71118,175.98648 369.42449,176.95097 365.68453,176.42762 C 358.42783,175.40361 359.46177,172.1179 360.01807,166.17187 C 362.2702,142.01219 355.25728,129.62939 355.25728,129.62939 C 369.07866,119.81479 366.98811,113.37164 366.98811,113.37164 C 356.33728,116.68038 348.39248,111.53443 353.23583,100.60688 C 358.07882,89.676128 360.80823,75.841286 360.80823,75.841286 C 352.23484,72.532546 338.61083,76.213333 338.61083,76.213333 C 334.88398,65.424318 330.57425,64.100538 330.57425,64.100538 C 328.36819,67.422743 323.26831,71.77853 323.26831,71.77853 C 284.13815,53.380617 269.36504,78.676286 266.43827,81.975105 C 263.80099,84.938372 259.77118,85.168687 256.99536,86.192703 C 242.85792,91.407742 243.56587,98.397624 240.97784,101.26877 C 239.59524,102.78955 233.10248,105.2394 233.20807,108.14314 C 233.47453,116.23924 239.28237,115.13621 241.63973,121.34904 C 244.69512,129.37569 245.83111,129.08621 248.95559,130.03758 C 255.32292,131.99987 260.54788,126.66932 271.09347,125.89262 C 276.5654,125.48408 284.37201,131.82554 282.94299,139.02589 C 280.26957,138.04156 277.22729,136.95837 273.76689,135.78624 C 252.20835,128.45727 237.61985,142.27865 219.91961,142.69676 C 191.98701,143.34873 187.4204,126.78483 191.90481,117.62184 C 194.26217,112.77884 199.03607,110.78042 197.29453,108.1892 C 193.44898,102.46357 174.13229,116.99325 181.02012,134.78845 C 189.92941,157.84191 222.46158,153.02195 248.9687,142.15038 C 259.32969,137.88991 271.18595,141.24506 279.63071,145.03109 C 271.18595,154.98743 262.70788,147.04298 257.51587,144.96199 C 251.9876,142.74282 244.70504,150.32869 250.88492,155.72833 C 255.69177,159.94593 265.47343,161.96739 264.17303,165.66128 C 264.17303,165.66128 264.72933,168.61144 247.16764,166.39227 C 224.01886,163.4655 209.7691,170.38593 209.7691,170.38593 C 156.38634,152.77817 138.44268,94.634278 140.34579,91.799632 C 142.47249,88.642191 149.47548,75.028097 134.42245,66.434869 C 132.79607,65.506522 131.85461,64.992743 130.48477,64.597664 C 124.76942,54.272822 111.85335,59.998452 111.85335,59.998452 C 115.82717,61.39416 118.12536,62.207703 120.20599,66.352664 C 116.32749,69.743963 115.12914,75.564908 115.12914,75.564908 C 115.12914,75.564908 108.9032,61.334987 94.396897,65.924633 C 76.173314,71.706247 75.942999,90.999553 75.942999,90.999553 C 75.942999,90.999553 84.513196,80.56912 89.553905,83.960419 C 92.714534,86.087467 91.980361,89.119474 90.982566,91.091679 C 82.363117,97.923529 81.912054,103.50743 84.095086,107.91282 C 78.451661,119.37365 86.847527,125.19459 86.847527,125.19459 C 86.847527,120.00223 88.740361,117.15766 90.748708,115.58727 C 90.969456,115.77506 91.180282,115.95932 91.377645,116.13365 C 96.905558,121.11837 104.31674,122.33656 104.31674,122.33656 C 104.31674,122.33656 102.37749,123.82475 101.39989,127.44636 C 100.79717,129.70168 103.57264,133.05684 100.98178,135.27565 C 98.403668,137.48172 94.153117,132.96471 94.153117,132.96471 C 95.720322,148.87664 110.93776,145.00806 113.98005,143.15136 C 115.14225,142.44341 117.52264,140.6753 119.89312,139.48014 C 122.29654,138.27187 124.30489,137.93597 125.71087,139.35187 C 131.0315,144.73168 117.38446,149.97967 127.53497,161.2364 C 127.53497,161.2364 126.51095,157.27569 133.3428,156.90365 C 137.57032,156.66979 141.08989,157.39085 146.80524,166.24097 C 152.51776,175.09073 160.96252,192.58333 154.87512,197.38026 C 153.43619,198.51943 151.65851,198.96093 149.80146,198.98396 C 143.77288,199.05305 136.75678,194.69727 136.75678,194.69727 C 136.75678,194.69727 138.13973,212.82837 158.94107,217.16112 C 147.14115,221.21396 137.31343,216.3249 137.31343,216.3249 C 140.26323,228.68112 151.26343,232.78357 151.26343,232.78357 C 144.26044,237.02101 135.4663,247.93864 135.4663,247.93864 C 133.25068,244.80423 125.10851,245.44309 125.10851,245.44309 C 121.79623,230.50522 111.21449,229.84368 107.56985,229.31998 C 105.66355,229.05317 104.10627,230.01801 103.19103,230.01801 C 102.38741,227.6936 100.76103,225.45459 97.659574,223.74601 C 86.593826,217.65825 79.356976,228.62549 79.356976,228.62549 C 79.356976,228.62549 83.782212,228.33565 86.567605,228.80975 C 90.413156,229.46172 96.546621,237.95254 81.935086,239.4014 C 72.53859,240.33294 65.940598,246.80266 66.81296,253.67738 C 58.703748,259.2875 57.614181,268.86825 59.948512,273.72471 C 59.948512,273.72471 65.871504,264.1436 71.656307,266.34967 C 72.212606,266.79081 74.583078,268.21982 75.350204,268.55573 C 79.633708,270.46203 81.609102,270.04392 81.609102,270.04392 C 73.687684,277.22124 74.909062,283.97053 76.022015,287.0688 C 77.18422,290.32156 78.68233,291.34557 80.321818,292.71541 C 80.041897,293.99278 77.556267,304.14329 89.171936,309.87211 C 89.171936,309.87211 87.881109,308.20923 88.253157,303.04026 C 88.427842,300.6138 89.912487,297.6966 93.050086,297.32774 C 99.460637,297.73274 103.82953,293.86415 103.82953,293.86415 C 107.32607,290.7301 110.56572,292.53081 107.05607,298.43077 C 103.39831,304.60746 111.30981,307.83719 111.30981,307.83719 C 108.9032,313.3651 103.66512,314.48124 103.66512,314.48124 C 103.66512,314.48124 112.22505,320.74333 122.60942,311.15939 C 132.93461,301.63427 129.45119,284.3525 129.45119,284.3525 C 137.75457,289.14943 150.06827,288.32313 150.06827,288.32313 C 156.52453,303.44845 170.85969,302.37837 170.85969,302.37837 C 165.88808,297.20939 159.55689,285.90978 166.55989,281.4849 C 173.56607,277.06002 177.8726,293.45915 185.80713,304.70278 C 193.72855,315.95632 200.18516,314.10919 200.18516,314.10919 C 188.01319,298.24333 198.95386,296.60703 196.64256,297.38372 C 199.52327,296.40931 201.47563,298.24333 205.28504,305.17687 C 210.15107,314.06313 214.66843,311.62356 214.66843,311.62356 C 214.66843,311.62356 213.0913,310.23069 212.32418,304.21238 C 210.26658,288.29018 218.44489,296.03726 222.25394,303.93565 C 223.96288,307.47825 229.56981,312.63411 236.89878,317.14156 C 244.07929,321.55333 252.90638,325.35282 261.36142,326.43282 C 280.35177,328.85927 281.31662,332.41498 281.31662,332.41498 C 274.30051,334.44636 270.50103,340.45191 270.50103,340.45191 C 283.21937,340.82396 293.66292,342.70722 297.21543,343.90238 C 300.75803,345.09754 323.66339,356.07435 293.0804,354.34238 C 282.46571,353.74002 273.76689,354.75057 267.29752,356.12041 C 261.54567,357.32868 257.5389,358.81687 255.57662,359.72218 C 250.10788,362.20781 247.4015,366.4814 234.91347,362.72833 C 224.91426,359.72218 221.84575,359.54785 210.28961,360.03506 C 198.71008,360.51234 164.1926,376.38848 156.07347,369.1977 C 147.96426,362.01045 166.88587,350.44085 166.88587,350.44085 C 148.26721,343.79679 134.44583,361.069 134.44583,361.069 C 107.05607,337.15274 61.699968,348.40947 68.867724,388.37585 C 73.246543,412.81226 94.979771,410.32663 94.979771,410.32663 C 91.483235,407.19222 83.966464,402.83608 82.537448,390.45364 C 80.878117,376.0625 93.665912,372.60211 93.478117,379.33829 C 93.293865,385.98234 95.628196,386.0284 95.628196,386.0284 C 98.0217,375.51931 101.52816,372.38136 113.70012,374.58742 C 121.46032,376.00651 124.00229,382.50884 124.00229,382.50884 C 124.00229,382.50884 108.02091,387.32915 108.62646,405.71714 C 109.09099,420.14124 126.97831,420.32868 126.97831,420.32868 C 126.97831,420.32868 115.28044,411.44242 121.3682,402.22061 C 127.45276,392.99844 134.68926,395.75088 138.55784,402.02289 C 142.43634,408.28179 146.54871,408.01533 146.54871,408.01533 C 146.54871,408.01533 142.10044,412.20955 143.20347,421.5699 C 144.60945,433.55762 154.41095,434.26557 154.41095,434.26557 C 148.88268,416.93773 165.03875,418.0964 165.03875,418.0964 C 168.73264,440.03726 181.46126,439.04939 189.8139,440.13258 C 198.16371,441.21258 200.87008,445.99639 195.79642,450.87553 C 191.8917,454.62576 181.38225,454.62576 169.90477,474.70923 C 151.84595,506.32297 144.1219,482.7823 143.57552,479.82895 C 143.01567,476.87915 140.72741,474.3836 140.72741,474.3836 C 155.29323,465.53348 144.8628,446.69443 126.01382,443.79033 C 122.21434,443.19789 118.61575,443.40517 115.80414,444.30092 C 113.51587,444.93943 109.9832,447.09943 108.17221,448.44588 C 106.75666,448.58762 104.3628,448.74884 103.46741,448.9136 C 92.121739,450.93151 91.29544,462.28073 91.29544,462.28073 C 96.138432,457.10147 101.73898,459.02762 104.91946,459.30754 C 106.1178,463.77848 109.88115,467.21584 114.57284,468.01911 C 116.57127,469.32978 115.54725,471.18966 114.01619,471.32821 C 112.51808,471.46639 108.43902,468.91132 102.63119,470.85411 C 95.325243,473.29049 92.108629,477.91273 92.678393,485.78844 C 90.274613,488.21809 85.326385,492.11962 86.313905,499.06344 C 87.416936,506.81372 94.525164,509.94813 94.525164,509.94813 C 94.525164,509.94813 91.855282,496.78828 98.416778,498.07876 C 100.04316,500.13317 102.36438,500.22565 104.57363,500.72596 C 109.6604,501.88817 110.93776,497.40411 114.29292,500.81809 C 115.9193,502.45793 117.62788,506.17167 117.62788,506.17167 C 117.62788,506.17167 111.30981,509.20403 108.43902,515.01187 C 101.01792,530.03159 112.59709,536.86982 112.59709,536.86982 C 112.59709,536.86982 111.66875,531.5297 113.65406,526.69627 C 117.87166,516.44053 120.96001,523.54876 127.41981,523.9208 C 133.86615,524.29285 138.6039,517.82348 138.6039,517.82348 C 138.6039,517.82348 139.76611,519.72659 142.6702,522.37698 C 145.58386,525.02383 151.543,524.10541 151.543,524.10541 C 151.543,524.10541 149.10343,526.17293 148.9291,529.63651 C 148.73138,533.49198 149.76532,536.45171 151.543,538.66096 C 150.1604,540.76143 147.07205,544.14281 141.56398,543.88592 C 141.56398,543.88592 150.41693,551.45868 161.82213,543.83986 C 166.46741,544.44576 171.24166,543.55037 174.00721,541.76242 C 180.82241,537.33753 176.96693,526.84793 176.41063,518.61364 C 175.86426,510.37935 200.44205,504.0347 205.19292,502.44446 C 209.93067,500.85423 213.65752,496.66002 213.65752,496.66002 C 221.95134,512.88801 233.06634,511.81793 233.06634,511.81793 C 229.55989,506.27691 232.23012,499.98187 232.23012,499.98187 C 246.24922,504.0347 253.85776,498.50679 253.85776,498.50679 C 242.23252,494.2697 241.86048,481.36321 251.08229,478.78545 C 261.64099,475.82218 263.75492,468.1938 263.75492,468.1938 C 268.17981,470.95616 271.59414,469.85313 271.59414,469.85313 C 271.59414,469.85313 269.60882,468.08821 270.23422,464.52258 C 272.76626,450.13179 263.71878,444.67297 258.9215,443.19789 C 254.12457,441.72281 247.57583,427.70372 261.95386,409.24663 C 271.85067,396.54104 286.76197,393.92714 296.7874,393.92714 C 302.82591,393.92714 307.00701,394.79951 307.00701,394.79951 C 305.25236,397.00557 303.77729,399.17833 302.53606,401.30183 C 290.57138,421.81368 300.62977,438.23939 300.62977,438.23939 C 289.37622,447.09943 292.6754,457.19395 292.6754,457.19395 C 297.47232,453.12765 303.48744,453.21978 303.48744,453.21978 C 290.45622,481.91986 317.28614,493.81509 317.28614,493.81509 C 317.28614,493.81509 311.93256,468.64486 327.79878,474.73261 C 344.62949,481.17895 347.16118,478.04135 347.16118,478.04135 C 342.7363,474.54482 344.53382,470.87714 344.53382,470.87714 C 348.29717,470.35344 351.81673,469.60935 355.10598,468.72706 C 379.98319,462.0008 391.29591,446.28624 391.29591,446.28624 C 391.85575,449.97021 391.72713,451.81415 399.47421,465.27659 C 407.2213,478.73939 403.58657,497.40411 394.99016,500.81809 C 389.20535,503.10635 385.03701,503.56061 381.82039,502.97809 C 373.79339,501.53915 372.4239,495.74443 365.32559,491.48076 C 355.70835,485.69632 344.94236,489.84128 341.17902,500.87726 C 339.99378,504.32773 340.3428,504.23242 339.78614,506.81372 C 332.77996,510.86655 331.0976,522.00494 338.89075,530.39053 C 338.89075,530.39053 337.83378,522.00494 343.75677,519.01864 C 348.68232,523.00238 356.17252,522.63033 356.17252,522.63033 C 356.17252,522.63033 355.08295,525.9986 353.73295,527.27596 C 340.70173,539.63572 357.38079,552.01816 357.38079,552.01816 C 355.16197,544.63994 358.39169,541.20293 358.39169,541.20293 C 358.39169,541.20293 363.53764,550.93852 373.86283,548.35722 C 384.18768,545.77911 381.86646,530.94683 381.86646,530.94683 C 388.83331,529.31053 389.93634,535.58253 393.81803,540.56407 C 396.88335,544.51486 400.57724,545.89462 403.90901,546.15116 C 406.29295,549.43722 410.6126,552.86431 418.30016,552.64391 C 421.6585,552.55179 421.88882,550.91194 421.88882,550.91194 C 421.88882,550.91194 417.51,549.68383 414.0861,543.83986 C 417.55961,541.36734 421.9122,532.58667 416.93067,525.5936 C 411.38964,517.85643 418.5209,517.87946 421.6585,521.19139 C 424.79291,524.5136 426.60709,526.48899 428.6746,528.57954 C 432.12189,532.07289 438.53527,530.94683 438.53527,530.94683 C 438.34783,537.59088 432.05279,543.70167 432.05279,543.70167 C 449.0348,543.23749 448.04728,527.89143 448.04728,527.89143 C 453.21626,525.87352 461.85555,516.22013 457.80236,507.37002 C 453.74953,498.5199 436.76752,502.10891 436.76752,502.10891 C 445.99252,490.49324 446.38441,477.8897 446.38441,477.8897 C 451.55338,478.0775 456.73582,488.70529 456.73582,488.70529 C 461.9048,478.0084 455.72492,468.37805 455.72492,468.37805 C 461.80949,466.53092 462.64571,459.8773 462.64571,459.8773 C 462.64571,459.8773 451.10232,459.48187 452.5774,452.10718 C 454.05248,444.73214 465.98102,449.70021 465.98102,449.70021 C 465.60897,439.56317 455.4124,440.79447 456.31771,434.30171 C 457.38425,426.66978 469.48712,431.59533 469.48712,431.59533 C 469.48712,431.59533 472.55563,421.61596 461.46366,415.03144 C 442.17992,403.58018 453.33142,393.76557 462.74102,395.8664 C 472.36819,398.01612 478.45594,412.45332 478.45594,412.45332 C 478.45594,412.45332 485.28425,398.56285 471.54508,387.69128 C 450.64807,371.15006 431.04189,391.84935 431.04189,391.84935 C 418.86992,381.33671 409.64775,387.03931 399.34594,389.89699 C 379.42689,395.4249 366.8928,379.94419 393.84106,373.81037 C 458.02311,359.21195 489.87071,299.02356 425.40874,194.69727 C 425.32972,194.58176 425.2702,194.47652 425.2011,194.36136 C 440.34626,190.924 457.62803,193.98931 474.63342,207.05668 L 476.3289,208.84463 C 468.02551,222.9229 469.81311,237.77821 473.36917,251.15845 C 471.81153,257.59203 470.38287,266.23451 471.35728,273.72471 C 471.35728,273.72471 479.8024,261.46061 477.95527,269.20734 C 476.10815,276.95443 476.85224,283.69061 478.37338,288.84683 C 479.0583,291.19427 482.40354,275.58494 487.31563,281.38923 L 488.14193,282.45931 C 494.28567,291.78671 496.24795,295.48097 496.24795,295.48097 C 497.84137,297.76923 499.22114,295.61915 498.74669,294.2362 C 497.01508,285.52463 497.35098,281.97211 500.95275,272.98061 C 503.31011,267.12671 524.55259,229.46172 488.49094,199.63239 z M 442.56543,318.94262 C 354.88524,296.03726 369.47374,220.23955 411.8439,198.86845 C 412.29496,199.62246 413.6315,200.36656 414.0861,201.1305 C 446.92122,257.49955 451.61291,294.60825 442.56543,318.94262 z M 290.80524,93.2779 C 293.13957,95.645183 292.18819,97.156403 293.84752,101.09408 C 294.3939,103.43833 293.02441,104.66963 288.03969,101.58129 C 285.12567,99.780577 279.10736,97.910419 279.10736,97.910419 C 277.84311,97.40975 277.45796,95.981088 278.54114,95.065852 C 279.38729,94.459947 280.97752,94.390852 282.51177,93.6829 C 285.75142,92.03349 288.22713,90.871285 290.80524,93.2779 z "
         style="fill:black;fill-opacity:1;fill-rule:evenodd"
         id="_98178992" />
    </g>
  </g>
</svg>
